<svg xmlns="http://www.w3.org/2000/svg" version="1.1" xmlns:xlink="http://www.w3.org/1999/xlink" xmlns:svgjs="http://svgjs.dev/svgjs" width="1500" height="386" viewBox="0 0 1500 386"><g transform="matrix(1,0,0,1,-0.9090909090909918,0.2560561520355691)"><svg viewBox="0 0 396 102" data-background-color="#ffffff" preserveAspectRatio="xMidYMid meet" height="386" width="1500" xmlns="http://www.w3.org/2000/svg" xmlns:xlink="http://www.w3.org/1999/xlink"><g id="tight-bounds" transform="matrix(1,0,0,1,0.2400000000000091,-0.0676625064964469)"><svg viewBox="0 0 395.52 102.13532501299292" height="102.13532501299292" width="395.52"><g><svg viewBox="0 0 395.52 102.13532501299292" height="102.13532501299292" width="395.52"><g transform="matrix(1,0,0,1,0,63.12372832405306)"><svg viewBox="0 0 395.52 39.01159668893986" height="39.01159668893986" width="395.52"><g id="textblocktransform"><svg viewBox="0 0 395.52 39.01159668893986" height="39.01159668893986" width="395.52" id="textblock"><g><svg viewBox="0 0 395.52 39.01159668893986" height="39.01159668893986" width="395.52"><g transform="matrix(1,0,0,1,0,0)"><svg width="395.52" viewBox="1.61 -36.84 489.55 48.290000000000006" height="39.01159668893986" data-palette-color="#000000"><path d="M32.86-16.85L32.86-16.85Q32.86-13.57 31.91-10.55 30.96-7.52 28.89-5.14 26.83-2.76 23.52-1.38 20.21 0 15.5 0L15.5 0 1.61 0 1.61-2.15 4.25-2.34Q4.79-2.39 5.07-2.73 5.35-3.08 5.35-3.44L5.35-3.44 5.35-30.1Q5.35-30.47 5.07-30.82 4.79-31.18 4.25-31.2L4.25-31.2 1.61-31.4 1.61-33.54 14.5-33.54Q19.75-33.54 23.9-31.77 28.05-30 30.46-26.32 32.86-22.63 32.86-16.85ZM27.2-16.75L27.2-16.75Q27.2-22 25.6-25.16 24-28.32 21.08-29.74 18.16-31.15 14.21-31.15L14.21-31.15 10.4-31.15 10.4-2.39 14.45-2.44Q18.31-2.49 21.17-3.92 24.02-5.35 25.61-8.47 27.2-11.6 27.2-16.75ZM45.68-32.35L45.68-32.35Q45.68-31.08 44.8-30.16 43.92-29.25 42.65-29.25L42.65-29.25Q41.38-29.25 40.46-30.16 39.55-31.08 39.55-32.35L39.55-32.35Q39.55-33.64 40.46-34.52 41.38-35.4 42.65-35.4L42.65-35.4Q43.92-35.4 44.8-34.52 45.68-33.64 45.68-32.35ZM48.24-1.95L48.24 0 36.5 0 36.5-1.95 38.94-2.1Q39.99-2.17 39.99-3.2L39.99-3.2 39.99-21.04 36.55-21.04 36.55-22.8 42.65-24.71 44.63-24.71 44.63-3.2Q44.63-2.73 44.93-2.44 45.24-2.15 45.68-2.1L45.68-2.1 48.24-1.95ZM75.34-23.19L75.34-20.75 70.36-20.75Q70.92-19.85 71.31-18.77 71.7-17.7 71.7-16.26L71.7-16.26Q71.7-13.77 70.33-12 68.96-10.23 66.73-9.28 64.5-8.33 61.88-8.33L61.88-8.33Q61.64-8.33 61.4-8.33 61.15-8.33 60.91-8.35L60.91-8.35Q60.59-7.84 60.48-7.25 60.37-6.67 60.37-6.15L60.37-6.15Q60.37-5.69 60.42-5.37 60.47-5.05 60.49-5L60.49-5 61.2-4.93Q62.96-4.76 65.14-4.44 67.33-4.13 69.37-3.42 71.41-2.71 72.72-1.42 74.04-0.12 74.04 2L74.04 2Q74.04 4.37 72.31 6.53 70.58 8.69 67.63 10.07 64.69 11.45 61.05 11.45L61.05 11.45Q56.59 11.45 54.12 9.41 51.66 7.37 51.66 4.35L51.66 4.35Q51.66 2.17 52.95 0.48 54.24-1.22 56.95-1.71L56.95-1.71Q56.68-2.49 56.56-2.83 56.44-3.17 56.44-4L56.44-4Q56.44-4.98 57.04-6.16 57.64-7.35 58.95-8.69L58.95-8.69Q56.46-9.25 54.61-11.22 52.75-13.18 52.75-16.21L52.75-16.21Q52.75-20.14 55.52-22.42 58.3-24.71 62.79-24.71L62.79-24.71Q64.57-24.71 66.1-24.18 67.62-23.66 68.6-23.19L68.6-23.19 75.34-23.19ZM66.94-16.55L66.94-16.55Q66.94-18.14 66.4-19.53 65.86-20.92 64.84-21.79 63.81-22.66 62.3-22.66L62.3-22.66Q60.2-22.66 58.87-21.03 57.54-19.41 57.54-16.5L57.54-16.5Q57.54-13.99 58.74-12.19 59.93-10.4 62.3-10.4L62.3-10.4Q64.55-10.4 65.74-12.21 66.94-14.01 66.94-16.55ZM69.75 3.34L69.75 3.34Q69.75 1.78 68.66 0.93 67.57 0.07 65.96-0.34 64.35-0.76 62.71-0.94 61.08-1.12 59.96-1.34L59.96-1.34Q57.78-0.56 56.97 0.78 56.15 2.12 56.15 3.34L56.15 3.34Q56.15 4.54 56.84 5.9 57.54 7.25 58.99 8.2 60.44 9.16 62.69 9.16L62.69 9.16Q65.08 9.16 66.65 8.2 68.21 7.25 68.98 5.9 69.75 4.54 69.75 3.34ZM87.08-32.35L87.08-32.35Q87.08-31.08 86.2-30.16 85.32-29.25 84.05-29.25L84.05-29.25Q82.78-29.25 81.87-30.16 80.95-31.08 80.95-32.35L80.95-32.35Q80.95-33.64 81.87-34.52 82.78-35.4 84.05-35.4L84.05-35.4Q85.32-35.4 86.2-34.52 87.08-33.64 87.08-32.35ZM89.64-1.95L89.64 0 77.9 0 77.9-1.95 80.34-2.1Q81.39-2.17 81.39-3.2L81.39-3.2 81.39-21.04 77.95-21.04 77.95-22.8 84.05-24.71 86.03-24.71 86.03-3.2Q86.03-2.73 86.33-2.44 86.64-2.15 87.08-2.1L87.08-2.1 89.64-1.95ZM108-3.05L108-3.05 108-1.05Q108-1.05 107.06-0.63 106.12-0.22 104.59 0.2 103.07 0.61 101.26 0.61L101.26 0.61Q98.45 0.61 97.17-0.72 95.89-2.05 95.89-5L95.89-5 95.89-21.61 92.69-21.61 92.69-23.24 96.11-24.85 98.35-30.15 100.55-30.15 100.55-24.1 107.61-24.1 107.61-21.61 100.55-21.61 100.55-7.64Q100.55-4.66 101.55-3.43 102.55-2.2 104.56-2.2L104.56-2.2Q106.02-2.2 107.01-2.62 108-3.05 108-3.05ZM132.95-1.95L132.95 0 125.55 0 124.89-2.95Q124.89-2.95 124.15-2.42 123.4-1.88 122.18-1.17 120.96-0.46 119.48 0.07 118.01 0.61 116.54 0.61L116.54 0.61Q113.83 0.61 111.94-1.2 110.05-3 110.05-6.15L110.05-6.15Q110.05-7.54 110.55-8.74 111.05-9.94 112.55-11.02 114.05-12.11 117.02-13.15 119.98-14.18 124.89-15.26L124.89-15.26 124.89-17.41Q124.89-22.34 120.23-22.34L120.23-22.34Q118.93-22.34 117.99-22.09 117.05-21.85 116.69-21.7L116.69-21.7 116.69-17.36 113.05-17.36Q112.37-17.36 111.78-17.61 111.19-17.87 111.19-18.8L111.19-18.8Q111.19-20.85 112.76-22.16 114.32-23.46 116.72-24.08 119.13-24.71 121.59-24.71L121.59-24.71Q124.69-24.71 126.4-23.74 128.11-22.78 128.8-21.08 129.48-19.38 129.48-17.21L129.48-17.21 129.48-3.2Q129.48-2.73 129.78-2.44 130.09-2.15 130.53-2.1L130.53-2.1 132.95-1.95ZM124.89-4.71L124.89-4.71 124.89-13.35Q121.52-12.52 119.53-11.68 117.54-10.84 116.56-10 115.59-9.16 115.28-8.29 114.98-7.42 114.98-6.49L114.98-6.49Q114.98-4.96 115.97-3.65 116.96-2.34 118.74-2.34L118.74-2.34Q119.74-2.34 120.81-2.7 121.89-3.05 122.81-3.53 123.74-4 124.32-4.36 124.89-4.71 124.89-4.71ZM147.28-1.95L147.28 0 135.12 0 135.12-1.95 137.78-2.1Q138.12-2.1 138.5-2.47 138.88-2.83 138.88-3.15L138.88-3.15 138.88-33.25 135.07-33.25 135.07-34.91 141.46-36.84 143.52-36.84 143.52-3.15Q143.52-2.83 143.88-2.47 144.25-2.1 144.57-2.1L144.57-2.1 147.28-1.95ZM213.38-2.15L213.38 0 200.76 0 200.76-2.15 203.42-2.34Q203.96-2.39 204.24-2.73 204.52-3.08 204.52-3.44L204.52-3.44 204.52-31.01 193.02 0 190.53 0 179.42-30.54 179.42-3.44Q179.42-3.08 179.7-2.73 179.98-2.39 180.52-2.34L180.52-2.34 183.38-2.15 183.38 0 172.56 0 172.56-2.15 175.42-2.34Q175.96-2.39 176.21-2.73 176.47-3.08 176.47-3.44L176.47-3.44 176.47-30.1Q176.47-30.47 176.21-30.82 175.96-31.18 175.42-31.2L175.42-31.2 172.56-31.4 172.56-33.54 183.77-33.54 183.77-32.2 192.83-7.64 201.88-32.06 201.88-33.54 213.38-33.54 213.38-31.4 210.67-31.2Q210.14-31.18 209.86-30.82 209.57-30.47 209.57-30.1L209.57-30.1 209.57-3.44Q209.57-3.08 209.86-2.73 210.14-2.39 210.67-2.34L210.67-2.34 213.38-2.15ZM239.53-1.95L239.53 0 232.13 0 231.47-2.95Q231.47-2.95 230.73-2.42 229.98-1.88 228.76-1.17 227.54-0.46 226.06 0.07 224.59 0.61 223.12 0.61L223.12 0.61Q220.41 0.61 218.52-1.2 216.63-3 216.63-6.15L216.63-6.15Q216.63-7.54 217.13-8.74 217.63-9.94 219.13-11.02 220.63-12.11 223.6-13.15 226.56-14.18 231.47-15.26L231.47-15.26 231.47-17.41Q231.47-22.34 226.81-22.34L226.81-22.34Q225.51-22.34 224.57-22.09 223.63-21.85 223.27-21.7L223.27-21.7 223.27-17.36 219.63-17.36Q218.95-17.36 218.36-17.61 217.78-17.87 217.78-18.8L217.78-18.8Q217.78-20.85 219.34-22.16 220.9-23.46 223.31-24.08 225.71-24.71 228.18-24.71L228.18-24.71Q231.28-24.71 232.99-23.74 234.69-22.78 235.38-21.08 236.06-19.38 236.06-17.21L236.06-17.21 236.06-3.2Q236.06-2.73 236.37-2.44 236.67-2.15 237.11-2.1L237.11-2.1 239.53-1.95ZM231.47-4.71L231.47-4.71 231.47-13.35Q228.1-12.52 226.11-11.68 224.12-10.84 223.15-10 222.17-9.16 221.86-8.29 221.56-7.42 221.56-6.49L221.56-6.49Q221.56-4.96 222.55-3.65 223.54-2.34 225.32-2.34L225.32-2.34Q226.32-2.34 227.39-2.7 228.47-3.05 229.4-3.53 230.32-4 230.9-4.36 231.47-4.71 231.47-4.71ZM259.4-23.95L259.4-18.99 257.45-18.99Q256.98-19.56 256.33-19.96 255.69-20.36 254.76-20.36L254.76-20.36Q253.56-20.36 252.31-19.53 251.05-18.7 249.76-17.26L249.76-17.26 249.76-3.2Q249.76-2.15 250.81-2.1L250.81-2.1 254.1-1.95 254.1 0 241.6 0 241.6-1.9 244.07-2.1Q244.51-2.15 244.81-2.44 245.12-2.73 245.12-3.2L245.12-3.2 245.12-20.56 241.5-20.56 241.5-22.19 247.7-24.1 249.76-24.1 249.76-19.65Q250.49-20.46 251.59-21.66 252.68-22.85 253.93-23.78 255.18-24.71 256.35-24.71L256.35-24.71Q257.13-24.71 258.03-24.46 258.93-24.22 259.4-23.95L259.4-23.95ZM286.11-1.95L286.11 0 278.1 0 278.1-1.95 271.85-11.35 269.06-11.35 269.06-3.2Q269.06-2.17 270.11-2.1L270.11-2.1 272.26-1.95 272.26 0 260.91 0 260.91-1.95 263.35-2.1Q264.4-2.17 264.4-3.2L264.4-3.2 264.4-33.25 260.62-33.25 260.62-34.91 267.01-36.84 269.06-36.84 269.06-12.79 270.07-12.79 277.41-21.09Q277.51-21.22 277.51-21.41L277.51-21.41Q277.51-21.9 277-21.95L277-21.95 274.95-22.14 274.95-24.1 284.66-24.1 284.66-22.14 281.47-21.8 274.85-14.75 283.47-2.25 286.11-1.95ZM309.42-5.54L309.42-2.49Q307.32-1.2 304.89-0.29 302.46 0.61 299.92 0.61L299.92 0.61Q296.89 0.61 294.24-0.74 291.6-2.1 289.96-4.86 288.32-7.62 288.32-11.79L288.32-11.79Q288.32-15.7 289.84-18.6 291.35-21.51 294.01-23.11 296.67-24.71 300.07-24.71L300.07-24.71Q304.73-24.71 307.07-21.81 309.42-18.92 309.42-14.45L309.42-14.45Q309.42-14.21 309.42-13.81 309.42-13.4 309.37-13.06L309.37-13.06 293.16-13.06Q293.16-11.16 293.56-9.27 293.96-7.37 294.92-5.83 295.87-4.3 297.48-3.37 299.09-2.44 301.51-2.44L301.51-2.44Q303.66-2.44 305.7-3.43 307.73-4.42 309.42-5.54L309.42-5.54ZM293.43-15.31L304.41-15.31 304.41-16.41Q304.41-18.87 303.23-20.56 302.05-22.24 299.55-22.24L299.55-22.24Q297.09-22.24 295.36-20.39 293.62-18.53 293.43-15.31L293.43-15.31ZM338.03-1.95L338.03 0 330.17 0 330.17-2.66Q328.46-1.34 326.53-0.37 324.6 0.61 322.43 0.61L322.43 0.61Q319.91 0.61 318.09-0.45 316.28-1.51 315.12-3.27 313.96-5.03 313.4-7.15 312.83-9.28 312.83-11.4L312.83-11.4Q312.83-14.79 314.23-17.83 315.62-20.87 318.45-22.79 321.28-24.71 325.58-24.71L325.58-24.71Q326.77-24.71 328.18-24.48 329.58-24.24 330.17-24.1L330.17-24.1 330.17-33.25 326.38-33.25 326.38-34.91 332.83-36.84 334.83-36.84 334.83-3.2Q334.83-2.17 335.88-2.1L335.88-2.1 338.03-1.95ZM330.17-4.54L330.17-4.54 330.17-21.56Q329.53-21.78 328.28-22.03 327.02-22.29 325.92-22.29L325.92-22.29Q322.21-22.29 319.99-19.54 317.77-16.8 317.77-12.26L317.77-12.26Q317.77-8.18 319.67-5.49 321.57-2.81 325.02-2.81L325.02-2.81Q326.53-2.81 327.86-3.38 329.19-3.96 330.17-4.54ZM357.51-7.25L357.51-7.25Q357.51-3.56 354.97-1.48 352.43 0.61 347.96 0.61L347.96 0.61Q345.67 0.61 343.73 0.13 341.79-0.34 341.03-0.66L341.03-0.66 341.03-7.3 343.57-7.3 344.18-3.05Q344.94-2.56 346.05-2.11 347.16-1.66 348.62-1.66L348.62-1.66Q350.77-1.66 351.94-2.86 353.11-4.05 353.11-5.54L353.11-5.54Q353.11-7.52 351.7-8.53 350.28-9.55 347.67-10.79L347.67-10.79 347.01-11.11Q344.28-12.4 342.82-13.81 341.37-15.21 341.37-17.46L341.37-17.46Q341.37-20.8 343.72-22.75 346.06-24.71 350.38-24.71L350.38-24.71Q352.58-24.71 354.3-24.3 356.02-23.9 356.78-23.56L356.78-23.56 356.78-17.65 354.16-17.65 353.77-21.14Q353.24-21.56 352.19-21.92 351.14-22.29 349.97-22.29L349.97-22.29Q347.91-22.29 346.91-21.35 345.91-20.41 345.91-18.95L345.91-18.95Q345.91-17.26 347.12-16.27 348.33-15.28 351.5-13.84L351.5-13.84Q354.12-12.65 355.81-11.17 357.51-9.69 357.51-7.25ZM378.67-33.84L378.67-33.84Q378.67-32.84 378.17-32.26 377.67-31.69 377.11-31.45 376.55-31.2 376.35-31.15L376.35-31.15Q376.28-31.23 375.59-31.71 374.89-32.2 374.02-32.81 373.16-33.42 372.48-33.9 371.81-34.38 371.76-34.4L371.76-34.4Q370.69-33.84 369.75-32.13 368.81-30.42 368.81-26.9L368.81-26.9 368.81-23.71 375.01-23.71 375.01-21.14 368.81-21.14 368.81-3.2Q368.81-2.73 369.12-2.43 369.42-2.12 369.86-2.1L369.86-2.1 372.81-1.95 372.81 0 360.66 0 360.66-1.95 363.12-2.1Q363.56-2.15 363.87-2.44 364.17-2.73 364.17-3.2L364.17-3.2 364.17-21.14 360.97-21.14 360.97-22.9 364.17-23.8Q364.17-26.27 364.55-27.89 364.93-29.52 365.86-31.3L365.86-31.3Q367.32-34.13 369.63-35.49 371.94-36.84 374.38-36.84L374.38-36.84Q376.5-36.84 377.59-35.95 378.67-35.06 378.67-33.84ZM401.01-12.01L401.01-12.01Q401.01-8.47 399.54-5.6 398.08-2.73 395.41-1.06 392.73 0.61 389.07 0.61L389.07 0.61Q387.46 0.61 386.03 0.24 384.6-0.12 383.38-0.76L383.38-0.76 380.62 4.1 378.87 3.05 381.67-1.86Q379.53-3.54 378.38-6.18 377.23-8.81 377.23-12.01L377.23-12.01Q377.23-15.58 378.68-18.46 380.14-21.34 382.83-23.02 385.53-24.71 389.22-24.71L389.22-24.71Q390.61-24.71 391.85-24.45 393.1-24.19 394.17-23.71L394.17-23.71 396.66-28.05 398.47-27.05 395.98-22.71Q398.42-21.02 399.72-18.23 401.01-15.43 401.01-12.01ZM383.77-5.49L392.73-21.14Q392.03-21.75 391.12-22.11 390.22-22.46 389.17-22.46L389.17-22.46Q386.85-22.46 385.37-21 383.9-19.53 383.19-17.16 382.48-14.79 382.48-12.06L382.48-12.06Q382.48-8.3 383.77-5.49L383.77-5.49ZM395.81-12.06L395.81-12.06Q395.81-14.16 395.39-16.08 394.98-17.99 394.13-19.46L394.13-19.46 385.02-3.54Q385.8-2.69 386.83-2.17 387.85-1.66 389.12-1.66L389.12-1.66Q391.42-1.66 392.89-3.13 394.37-4.59 395.09-6.96 395.81-9.33 395.81-12.06ZM421.76-23.95L421.76-18.99 419.81-18.99Q419.34-19.56 418.7-19.96 418.05-20.36 417.12-20.36L417.12-20.36Q415.92-20.36 414.67-19.53 413.41-18.7 412.12-17.26L412.12-17.26 412.12-3.2Q412.12-2.15 413.17-2.1L413.17-2.1 416.46-1.95 416.46 0 403.96 0 403.96-1.9 406.43-2.1Q406.87-2.15 407.17-2.44 407.48-2.73 407.48-3.2L407.48-3.2 407.48-20.56 403.86-20.56 403.86-22.19 410.06-24.1 412.12-24.1 412.12-19.65Q412.85-20.46 413.95-21.66 415.05-22.85 416.29-23.78 417.54-24.71 418.71-24.71L418.71-24.71Q419.49-24.71 420.39-24.46 421.3-24.22 421.76-23.95L421.76-23.95ZM433.16-32.35L433.16-32.35Q433.16-31.08 432.28-30.16 431.4-29.25 430.13-29.25L430.13-29.25Q428.86-29.25 427.95-30.16 427.03-31.08 427.03-32.35L427.03-32.35Q427.03-33.64 427.95-34.52 428.86-35.4 430.13-35.4L430.13-35.4Q431.4-35.4 432.28-34.52 433.16-33.64 433.16-32.35ZM435.72-1.95L435.72 0 423.98 0 423.98-1.95 426.42-2.1Q427.47-2.17 427.47-3.2L427.47-3.2 427.47-21.04 424.03-21.04 424.03-22.8 430.13-24.71 432.11-24.71 432.11-3.2Q432.11-2.73 432.41-2.44 432.72-2.15 433.16-2.1L433.16-2.1 435.72-1.95ZM464.77-1.95L464.77 0 453.74 0 453.74-1.95 455.84-2.1Q456.28-2.15 456.58-2.44 456.89-2.73 456.89-3.2L456.89-3.2 456.89-16.21Q456.89-18.58 455.79-19.81 454.69-21.04 452.08-21.04L452.08-21.04Q450.66-21.04 449.26-20.64 447.85-20.24 446.58-19.6L446.58-19.6 446.58-3.2Q446.58-2.17 447.63-2.1L447.63-2.1 449.73-1.95 449.73 0 438.43 0 438.43-1.95 440.87-2.1Q441.92-2.17 441.92-3.2L441.92-3.2 441.92-20.56 438.43-20.56 438.43-22.19 444.53-24.1 446.58-24.1 446.58-21.61Q448.68-22.8 450.89-23.75 453.1-24.71 454.84-24.71L454.84-24.71Q458.11-24.71 459.82-22.67 461.52-20.63 461.52-16.99L461.52-16.99 461.52-3.2Q461.52-2.73 461.83-2.44 462.14-2.15 462.57-2.1L462.57-2.1 464.77-1.95ZM491.16-23.19L491.16-20.75 486.18-20.75Q486.74-19.85 487.13-18.77 487.52-17.7 487.52-16.26L487.52-16.26Q487.52-13.77 486.16-12 484.79-10.23 482.55-9.28 480.32-8.33 477.71-8.33L477.71-8.33Q477.46-8.33 477.22-8.33 476.98-8.33 476.73-8.35L476.73-8.35Q476.41-7.84 476.3-7.25 476.2-6.67 476.2-6.15L476.2-6.15Q476.2-5.69 476.24-5.37 476.29-5.05 476.32-5L476.32-5 477.03-4.93Q478.78-4.76 480.97-4.44 483.15-4.13 485.19-3.42 487.23-2.71 488.55-1.42 489.87-0.12 489.87 2L489.87 2Q489.87 4.37 488.13 6.53 486.4 8.69 483.46 10.07 480.52 11.45 476.88 11.45L476.88 11.45Q472.41 11.45 469.95 9.41 467.48 7.37 467.48 4.35L467.48 4.35Q467.48 2.17 468.77 0.48 470.07-1.22 472.78-1.71L472.78-1.71Q472.51-2.49 472.39-2.83 472.26-3.17 472.26-4L472.26-4Q472.26-4.98 472.86-6.16 473.46-7.35 474.78-8.69L474.78-8.69Q472.29-9.25 470.43-11.22 468.58-13.18 468.58-16.21L468.58-16.21Q468.58-20.14 471.35-22.42 474.12-24.71 478.61-24.71L478.61-24.71Q480.39-24.71 481.92-24.18 483.45-23.66 484.42-23.19L484.42-23.19 491.16-23.19ZM482.76-16.55L482.76-16.55Q482.76-18.14 482.23-19.53 481.69-20.92 480.66-21.79 479.64-22.66 478.12-22.66L478.12-22.66Q476.02-22.66 474.69-21.03 473.36-19.41 473.36-16.5L473.36-16.5Q473.36-13.99 474.56-12.19 475.76-10.4 478.12-10.4L478.12-10.4Q480.37-10.4 481.57-12.21 482.76-14.01 482.76-16.55ZM485.57 3.34L485.57 3.34Q485.57 1.78 484.48 0.93 483.4 0.07 481.79-0.34 480.17-0.76 478.54-0.94 476.9-1.12 475.78-1.34L475.78-1.34Q473.61-0.56 472.79 0.78 471.97 2.12 471.97 3.34L471.97 3.34Q471.97 4.54 472.67 5.9 473.36 7.25 474.82 8.2 476.27 9.16 478.51 9.16L478.51 9.16Q480.91 9.16 482.47 8.2 484.03 7.25 484.8 5.9 485.57 4.54 485.57 3.34Z" opacity="1" transform="matrix(1,0,0,1,0,0)" fill="#000000" class="wordmark-text-0" data-fill-palette-color="primary" id="text-0"></path></svg></g></svg></g></svg></g></svg></g><g transform="matrix(1,0,0,1,153.76665219396128,0)"><svg viewBox="0 0 87.98669561207744 53.914026624114896" height="53.914026624114896" width="87.98669561207744"><g><svg xmlns="http://www.w3.org/2000/svg" xmlns:xlink="http://www.w3.org/1999/xlink" version="1.1" x="0" y="0" viewBox="3.45 9.139000000000003 43.09900020303854 26.409" enable-background="new 0 0 50 50" xml:space="preserve" height="53.914026624114896" width="87.98669561207744" class="icon-icon-0" data-fill-palette-color="accent" id="icon-0"><g fill="#000000" data-fill-palette-color="accent"><path fill="#000000" d="M38.129 17.617c-1.033-3.17-3.461-5.36-6.219-5.36-0.974 0.007-1.959 0.256-2.864 0.8-1.85-2.476-4.6-3.918-7.566-3.918-4.706 0-8.633 3.646-9.543 8.479-2.128 0.231-4.105 1.073-5.623 2.493C4.467 21.82 3.45 24.1 3.45 26.521c0 4.979 4.34 9.027 9.673 9.027h23.754c5.336 0 9.672-4.049 9.672-9.027C46.55 21.976 42.857 18.204 38.129 17.617zM36.877 33.242H13.123c-4.061 0-7.364-3.016-7.364-6.721 0-1.773 0.753-3.448 2.128-4.719 1.264-1.182 2.944-1.86 4.76-1.948h1.356c0-0.009-0.001-0.316 0.022-0.543 0.227-4.41 3.499-7.861 7.454-7.861 2.54 0 4.883 1.433 6.276 3.835l0.712 1.228 1.057-0.946c0.737-0.664 1.514-0.997 2.319-0.997 2.089 0.002 4.118 2.321 4.473 5.373l0.921-0.106c3.884 0.172 7.007 3.123 7.007 6.691C44.243 30.227 40.938 33.242 36.877 33.242z" data-fill-palette-color="accent"></path></g></svg></g></svg></g><g></g></svg></g><defs></defs></svg><rect width="395.52" height="102.13532501299292" fill="none" stroke="none" visibility="hidden"></rect></g></svg></g></svg>