<svg xmlns="http://www.w3.org/2000/svg" xmlns:xlink="http://www.w3.org/1999/xlink" version="1.1"
     width="460.264802347661"
     height="402.18839702291905" viewBox="0 0 460.264802347661 402.18839702291905">
    <rect fill="transparent" width="460.264802347661" height="402.18839702291905"/>
    <g transform="scale(8.113240117383048) translate(10, 10)">
        <defs id="SvgjsDefs3545"></defs>
        <g id="SvgjsG3546" featureKey="LwVBM5-0"
           transform="matrix(0.47712710772152056,0,0,0.47712710772152056,-6.0528407970061195,-7.638805103827273)"
           fill="#fff">
            <path xmlns="http://www.w3.org/2000/svg"
                  d="M87.665,44.856c-0.785,0.104-1.562,0.157-2.312,0.157c-9.634,0-17.471-7.838-17.471-17.471c0-3.127,0.839-6.196,2.425-8.877  l1.57-2.655l-3.059,0.403c-9.771,1.292-17.224,9.455-17.737,19.213c-0.051-0.01-0.103-0.012-0.153-0.021  c-0.473-0.081-0.951-0.145-1.433-0.194c-0.126-0.013-0.252-0.032-0.378-0.043c-0.589-0.05-1.182-0.081-1.78-0.081  c-6.987,0-13.426,3.447-17.368,8.967c-0.91,1.274-1.686,2.659-2.307,4.137c-0.059,0-0.117-0.001-0.176-0.001  c-8.16,0-14.8,6.64-14.8,14.8s6.64,14.799,14.8,14.799c3.229,0,6.355-1.061,8.922-3.008c3.301,1.971,7.056,3.008,10.929,3.008  c3.872,0,7.627-1.037,10.927-3.008c2.566,1.947,5.695,3.008,8.924,3.008c8.16,0,14.799-6.639,14.799-14.799  c0-0.448-0.027-0.895-0.068-1.338c-0.012-0.129-0.025-0.256-0.04-0.383c-0.044-0.37-0.1-0.738-0.171-1.103  c-0.014-0.073-0.023-0.149-0.039-0.222c-0.086-0.41-0.195-0.812-0.315-1.213c-0.039-0.131-0.082-0.26-0.125-0.389  c-0.109-0.331-0.229-0.657-0.362-0.979c-0.031-0.077-0.059-0.155-0.092-0.23c-0.175-0.405-0.369-0.803-0.58-1.192  c-0.028-0.051-0.059-0.102-0.087-0.152c-0.104-0.188-0.206-0.377-0.319-0.561c3.896-1.72,7.178-4.621,9.365-8.32l1.57-2.656  L87.665,44.856z M67.188,74.988c-2.875,0-5.65-1.057-7.815-2.977l-0.868-0.77l-0.963,0.646c-3.023,2.027-6.553,3.1-10.204,3.1  s-7.181-1.072-10.206-3.1l-0.963-0.646l-0.867,0.77c-2.164,1.92-4.939,2.977-7.814,2.977c-6.506,0-11.8-5.293-11.8-11.799  s5.294-11.8,11.8-11.8c0.355,0,0.705,0.023,1.053,0.054l1.149,0.098l0.39-1.086c2.609-7.277,9.545-12.168,17.259-12.168  c0.44,0,0.876,0.021,1.311,0.053c0.212,0.016,0.423,0.041,0.635,0.064s0.423,0.045,0.632,0.075c0.267,0.039,0.532,0.087,0.797,0.137  c0.152,0.028,0.303,0.058,0.453,0.09c0.277,0.06,0.555,0.127,0.83,0.2c5.738,1.521,10.531,5.778,12.6,11.549l0.39,1.086l1.149-0.098  c0.349-0.03,0.698-0.054,1.055-0.054c4.062,0,7.652,2.064,9.775,5.199c0.013,0.019,0.023,0.038,0.035,0.058  c0.184,0.274,0.355,0.558,0.516,0.848c0.058,0.104,0.108,0.211,0.162,0.316c0.107,0.207,0.211,0.416,0.305,0.631  c0.064,0.146,0.123,0.293,0.181,0.441c0.071,0.183,0.14,0.367,0.203,0.554c0.056,0.165,0.107,0.333,0.155,0.5  c0.053,0.183,0.1,0.368,0.144,0.555c0.04,0.168,0.079,0.336,0.111,0.506c0.04,0.214,0.07,0.431,0.099,0.648  c0.02,0.144,0.043,0.287,0.057,0.432c0.035,0.366,0.057,0.737,0.057,1.112C78.987,69.695,73.694,74.988,67.188,74.988z"></path>
        </g>
    </g>
</svg>
	