<svg xmlns="http://www.w3.org/2000/svg" version="1.1" xmlns:xlink="http://www.w3.org/1999/xlink" xmlns:svgjs="http://svgjs.dev/svgjs" width="1500" height="476" viewBox="0 0 1500 476"><g transform="matrix(1,0,0,1,0.15999999999996817,0.9968600000000833)"><svg viewBox="0 0 375 119" data-background-color="#ffffff" preserveAspectRatio="xMidYMid meet" height="476" width="1500" xmlns="http://www.w3.org/2000/svg" xmlns:xlink="http://www.w3.org/1999/xlink"><g id="tight-bounds" transform="matrix(1,0,0,1,-0.03976000000000113,-0.24921500000002084)"><svg viewBox="0 0 375.07953 119.49822" height="119.49822" width="375.07953"><g><svg></svg></g><g><svg viewBox="0 0 375.07953 119.49822" height="119.49822" width="375.07953"><g transform="matrix(1,0,0,1,-10.22024,-66.89657)"><path d="M10.22 180.303v-113.406h375.08v113.406l-129.26 0 0-3.775h125.485v-105.856h-367.529v105.856h125.484l0 3.775z" fill="#212121" fill-rule="nonzero" stroke="none" stroke-width="1" stroke-linecap="butt" stroke-linejoin="miter" stroke-miterlimit="10" stroke-dasharray="" stroke-dashoffset="0" font-family="none" font-weight="none" font-size="none" text-anchor="none" style="mix-blend-mode: normal" data-fill-palette-color="tertiary"></path><g><path d="M152.068 177.927l0.076 5.278h-1.338v-14.056h2.512l1.092 4.459 1.819 8.335h0.553l-0.226-7.657-0.069-5.137h1.347v14.056h-2.577l-1.242-4.972-1.564-7.834h-0.593zM162.608 183.322v0c-1.081 0-1.854-0.171-2.318-0.512-0.462-0.341-0.71-0.899-0.742-1.673v0c-0.027-0.484-0.044-1.055-0.053-1.714-0.011-0.656-0.011-1.315 0-1.976 0.008-0.664 0.026-1.242 0.053-1.734v0c0.032-0.793 0.286-1.36 0.762-1.701 0.476-0.341 1.242-0.512 2.298-0.513v0c1 0 1.723 0.167 2.17 0.5 0.446 0.336 0.692 0.887 0.738 1.654v0c0.013 0.231 0.026 0.632 0.036 1.201 0.013 0.573-0.005 1.18-0.057 1.823v0h-4.717c0 0.414 0.004 0.833 0.012 1.258 0.005 0.427 0.019 0.871 0.04 1.331v0c0.005 0.36 0.142 0.61 0.411 0.75 0.269 0.137 0.712 0.206 1.331 0.205v0c0.61 0 1.039-0.069 1.286-0.205 0.25-0.14 0.388-0.39 0.416-0.75v0c0.019-0.36 0.019-0.852 0-1.476v0h1.221c0.032 0.191 0.047 0.413 0.045 0.665-0.003 0.253-0.011 0.48-0.024 0.682v0c-0.046 0.774-0.281 1.332-0.706 1.673-0.422 0.341-1.156 0.512-2.202 0.512zM160.778 177.633v0h3.516c0.013-0.446 0.02-0.872 0.02-1.279 0-0.409-0.013-0.688-0.04-0.838v0c-0.027-0.328-0.168-0.562-0.424-0.702-0.255-0.142-0.669-0.214-1.242-0.214v0c-0.634 0-1.089 0.071-1.363 0.214-0.272 0.14-0.41 0.374-0.415 0.702v0c-0.022 0.382-0.036 0.746-0.044 1.092-0.011 0.349-0.013 0.691-0.008 1.025zM170.189 183.322v0c-1.024 0-1.715-0.171-2.073-0.512-0.358-0.341-0.536-0.899-0.536-1.673v0-6.408h-0.943v-1.101h0.975v-2.717h1.25v2.717h2.166v1.101h-2.178v6.545c0 0.363 0.075 0.613 0.226 0.75 0.153 0.137 0.535 0.206 1.145 0.205v0c0.247 0 0.438-0.004 0.573-0.012 0.134-0.011 0.29-0.019 0.468-0.024v0 1.053c-0.156 0.027-0.327 0.046-0.513 0.056-0.183 0.013-0.37 0.02-0.56 0.02zM175.31 183.322v0c-1.024 0-1.715-0.171-2.073-0.512-0.358-0.341-0.536-0.899-0.536-1.673v0-6.408h-0.947v-1.101h0.975v-2.717h1.25v2.717h2.166v1.101h-2.174v6.545c0 0.363 0.075 0.613 0.226 0.75 0.151 0.137 0.531 0.206 1.141 0.205v0c0.25 0 0.442-0.004 0.577-0.012 0.134-0.011 0.29-0.019 0.468-0.024v0 1.053c-0.159 0.027-0.329 0.046-0.512 0.056-0.183 0.013-0.37 0.02-0.561 0.02zM180.044 183.322v0c-1.056 0-1.79-0.171-2.202-0.512-0.409-0.341-0.629-0.899-0.661-1.673v0c-0.013-0.202-0.022-0.429-0.024-0.682-0.005-0.253 0.005-0.474 0.032-0.665v0h1.153c-0.013 0.301-0.019 0.578-0.016 0.831 0.003 0.253 0.008 0.468 0.016 0.645v0c0.005 0.36 0.132 0.61 0.379 0.75 0.245 0.137 0.685 0.206 1.323 0.205v0c0.651 0 1.109-0.069 1.375-0.205 0.266-0.14 0.409-0.39 0.427-0.75v0c0.019-0.223 0.032-0.388 0.041-0.496 0.005-0.11 0.005-0.266 0-0.468v0c-0.022-0.336-0.11-0.595-0.266-0.778-0.159-0.183-0.5-0.315-1.025-0.395v0l-1.153-0.267c-0.591-0.124-1.047-0.281-1.367-0.471-0.323-0.191-0.55-0.438-0.681-0.742-0.129-0.306-0.207-0.692-0.234-1.158v0c-0.022-0.237-0.005-0.496 0.048-0.778v0c0.013-0.793 0.229-1.36 0.645-1.701 0.417-0.341 1.176-0.512 2.279-0.513v0c1.056 0 1.79 0.167 2.201 0.5 0.409 0.336 0.633 0.887 0.674 1.654v0c0 0.199-0.001 0.425-0.004 0.677-0.003 0.253-0.015 0.473-0.037 0.661v0h-1.189c0.032-0.229 0.047-0.491 0.044-0.786-0.003-0.296-0.011-0.526-0.024-0.689v0c-0.008-0.347-0.128-0.586-0.359-0.718-0.234-0.132-0.669-0.198-1.306-0.198v0c-0.642 0-1.081 0.066-1.315 0.198-0.231 0.132-0.36 0.371-0.387 0.718v0c-0.008 0.164-0.019 0.301-0.032 0.411-0.011 0.108-0.013 0.257-0.008 0.447v0c0.019 0.229 0.054 0.431 0.105 0.609 0.048 0.177 0.16 0.324 0.334 0.44 0.172 0.113 0.456 0.199 0.851 0.258v0l1.101 0.23c0.801 0.164 1.386 0.418 1.754 0.762 0.368 0.344 0.552 0.864 0.552 1.56v0c0 0.142-0.003 0.296-0.008 0.46-0.003 0.164-0.011 0.323-0.024 0.476v0c-0.046 0.766-0.286 1.317-0.722 1.653-0.438 0.333-1.202 0.5-2.29 0.5zM186.157 170.427v1.419h-1.27v-1.419zM186.157 173.628v9.577h-1.278v-9.577zM190.351 183.322v0c-0.742 0-1.293-0.164-1.654-0.492-0.36-0.328-0.55-0.87-0.568-1.625v0c-0.027-0.538-0.046-1.128-0.057-1.77-0.011-0.642-0.011-1.296 0-1.96 0.011-0.661 0.03-1.281 0.057-1.859v0c0.019-0.763 0.214-1.306 0.584-1.629 0.371-0.325 0.923-0.488 1.658-0.488v0c0.546 0 0.974 0.083 1.286 0.25 0.312 0.167 0.582 0.425 0.811 0.775v0h0.258v-4.097h1.258v12.778h-1.258v-0.907h-0.287c-0.223 0.328-0.491 0.581-0.802 0.758-0.312 0.177-0.741 0.266-1.286 0.266zM190.718 182.25v0c0.989 0 1.659-0.298 2.008-0.896v0-5.887c-0.341-0.597-1.008-0.895-2-0.895v0c-0.46 0-0.793 0.074-1 0.222-0.207 0.148-0.313 0.386-0.319 0.714v0c-0.04 0.984-0.056 1.983-0.048 2.996 0.005 1.013 0.022 1.95 0.048 2.81v0c0.013 0.323 0.12 0.559 0.319 0.71 0.202 0.151 0.532 0.226 0.992 0.226zM198.798 183.322v0c-1.083 0-1.856-0.171-2.318-0.512-0.462-0.341-0.71-0.899-0.742-1.673v0c-0.027-0.484-0.046-1.055-0.057-1.714-0.008-0.656-0.008-1.315 0-1.976 0.011-0.664 0.03-1.242 0.057-1.734v0c0.032-0.793 0.286-1.36 0.762-1.701 0.476-0.341 1.242-0.512 2.298-0.513v0c0.997 0 1.719 0.167 2.166 0.5 0.446 0.336 0.692 0.887 0.738 1.654v0c0.013 0.231 0.027 0.632 0.04 1.201 0.013 0.573-0.007 1.18-0.061 1.823v0h-4.713c0 0.414 0.003 0.833 0.008 1.258 0.008 0.427 0.022 0.871 0.04 1.331v0c0.008 0.36 0.147 0.61 0.415 0.75 0.269 0.137 0.711 0.206 1.327 0.205v0c0.61 0 1.04-0.069 1.29-0.205 0.25-0.14 0.388-0.39 0.416-0.75v0c0.019-0.36 0.019-0.852 0-1.476v0h1.217c0.035 0.191 0.05 0.413 0.045 0.665-0.003 0.253-0.011 0.48-0.024 0.682v0c-0.046 0.774-0.28 1.332-0.702 1.673-0.425 0.341-1.159 0.512-2.202 0.512zM196.968 177.633v0h3.516c0.011-0.446 0.016-0.872 0.016-1.279 0-0.409-0.012-0.688-0.036-0.838v0c-0.027-0.328-0.168-0.562-0.424-0.702-0.258-0.142-0.672-0.214-1.242-0.214v0c-0.637 0-1.091 0.071-1.363 0.214-0.272 0.14-0.411 0.374-0.419 0.702v0c-0.019 0.382-0.034 0.746-0.044 1.092-0.011 0.349-0.012 0.691-0.004 1.025zM204.625 182.298v4.097h-1.27v-12.767h1.27v0.896h0.278c0.223-0.349 0.491-0.608 0.803-0.775 0.312-0.167 0.739-0.25 1.282-0.25v0c0.75 0 1.304 0.163 1.661 0.488 0.358 0.323 0.546 0.866 0.565 1.629v0c0.019 0.333 0.032 0.738 0.04 1.214 0.005 0.476 0.008 0.979 0.008 1.508 0 0.527-0.003 1.04-0.008 1.541-0.008 0.497-0.022 0.94-0.04 1.326v0c-0.019 0.755-0.215 1.297-0.589 1.625-0.376 0.328-0.938 0.492-1.685 0.492v0c-0.492 0-0.895-0.081-1.21-0.242-0.315-0.159-0.59-0.419-0.827-0.782v0zM206.585 182.25v0c0.887 0 1.344-0.312 1.371-0.936v0c0.051-1.016 0.071-2.02 0.06-3.012-0.008-0.989-0.028-1.921-0.06-2.794v0c-0.013-0.328-0.12-0.566-0.319-0.714-0.196-0.148-0.527-0.222-0.992-0.222v0c-1.005 0-1.679 0.298-2.02 0.895v0 5.887c0.177 0.323 0.419 0.552 0.726 0.69 0.304 0.137 0.715 0.206 1.234 0.206zM213.182 183.314v0c-0.801 0-1.394-0.157-1.779-0.472-0.384-0.317-0.609-0.81-0.673-1.48v0c-0.005-0.129-0.013-0.259-0.024-0.391-0.011-0.132-0.009-0.259 0.004-0.383v0c0.046-0.586 0.23-1.077 0.552-1.472 0.32-0.398 0.93-0.761 1.831-1.088v0c0.368-0.132 0.755-0.25 1.161-0.355 0.406-0.105 0.809-0.207 1.21-0.307v0-1.818c0-0.323-0.121-0.56-0.363-0.714-0.242-0.156-0.665-0.234-1.27-0.234v0c-0.524 0-0.923 0.066-1.198 0.198-0.272 0.132-0.421 0.371-0.447 0.718v0c-0.013 0.164-0.02 0.399-0.021 0.705 0 0.304 0.007 0.56 0.021 0.77v0h-1.23c-0.013-0.164-0.027-0.376-0.041-0.637-0.011-0.263-0.007-0.497 0.013-0.701v0c0.032-0.761 0.28-1.309 0.742-1.646 0.462-0.339 1.199-0.508 2.209-0.508v0c1.056 0 1.79 0.183 2.202 0.549 0.411 0.368 0.62 0.973 0.625 1.814v0 7.343h-1.242v-0.907h-0.274c-0.164 0.328-0.399 0.579-0.706 0.754-0.304 0.175-0.738 0.262-1.302 0.262zM213.496 182.25v0c0.946 0 1.599-0.282 1.96-0.847v0-2.984c-0.315 0.067-0.638 0.145-0.972 0.234-0.331 0.089-0.719 0.208-1.165 0.359v0c-0.532 0.196-0.887 0.422-1.065 0.677-0.175 0.258-0.276 0.558-0.302 0.899v0c0.005 0.097 0.009 0.203 0.012 0.319 0.005 0.116 0.015 0.235 0.028 0.359v0c0.046 0.315 0.203 0.558 0.472 0.73 0.269 0.169 0.613 0.254 1.032 0.254zM219.746 180.024v3.181h-1.23v-12.778h1.21v3.149l-0.105 4.173h0.335l0.952-1.858 1.479-2.263h1.339l-2.443 3.859 3.012 5.718h-1.327l-2.431-4.234zM226.5 180.024v3.181h-1.229v-12.778h1.209v3.149l-0.109 4.173h0.335l0.956-1.858 1.476-2.263h1.338l-2.439 3.859 3.012 5.718h-1.331l-2.431-4.234zM234.988 183.322v0c-1.083 0-1.856-0.171-2.318-0.512-0.462-0.341-0.711-0.899-0.746-1.673v0c-0.024-0.484-0.042-1.055-0.053-1.714-0.011-0.656-0.011-1.315 0-1.976 0.011-0.664 0.028-1.242 0.053-1.734v0c0.035-0.793 0.29-1.36 0.766-1.701 0.476-0.341 1.242-0.512 2.298-0.513v0c0.997 0 1.719 0.167 2.166 0.5 0.446 0.336 0.692 0.887 0.738 1.654v0c0.013 0.231 0.027 0.632 0.04 1.201 0.011 0.573-0.009 1.18-0.06 1.823v0h-4.714c0 0.414 0.003 0.833 0.008 1.258 0.005 0.427 0.019 0.871 0.04 1.331v0c0.005 0.36 0.142 0.61 0.411 0.75 0.269 0.137 0.712 0.206 1.331 0.205v0c0.61 0 1.04-0.069 1.29-0.205 0.247-0.14 0.384-0.39 0.412-0.75v0c0.022-0.36 0.022-0.852 0-1.476v0h1.222c0.032 0.191 0.047 0.413 0.044 0.665-0.003 0.253-0.011 0.48-0.024 0.682v0c-0.046 0.774-0.281 1.332-0.706 1.673-0.422 0.341-1.155 0.512-2.198 0.512zM233.158 177.633v0h3.512c0.013-0.446 0.02-0.872 0.02-1.279 0-0.409-0.013-0.688-0.04-0.838v0c-0.027-0.328-0.168-0.562-0.424-0.702-0.255-0.142-0.668-0.214-1.238-0.214v0c-0.637 0-1.093 0.071-1.367 0.214-0.272 0.14-0.41 0.374-0.415 0.702v0c-0.022 0.382-0.036 0.746-0.044 1.092-0.011 0.349-0.012 0.691-0.004 1.025zM240.843 175.467v7.738h-1.27v-9.577h1.27v0.896h0.279c0.169-0.328 0.395-0.581 0.677-0.758 0.282-0.177 0.633-0.266 1.052-0.267v0c0.632 0 1.099 0.165 1.404 0.496 0.306 0.331 0.46 0.903 0.459 1.718v0c0 0.177-0.007 0.387-0.02 0.629-0.013 0.245-0.034 0.461-0.06 0.649v0h-1.222c0.013-0.065 0.023-0.179 0.028-0.342 0.003-0.164 0.005-0.328 0.008-0.492 0.003-0.164 0.004-0.276 0.004-0.335v0c0-0.487-0.082-0.816-0.246-0.988-0.164-0.175-0.426-0.262-0.786-0.262v0c-0.769 0-1.294 0.298-1.577 0.895z" fill="#212121" fill-rule="nonzero" stroke="none" stroke-width="1" stroke-linecap="butt" stroke-linejoin="miter" stroke-miterlimit="10" stroke-dasharray="" stroke-dashoffset="0" font-family="none" font-weight="none" font-size="none" text-anchor="none" style="mix-blend-mode: normal" data-fill-palette-color="secondary" id="text-1"></path></g></g><g transform="matrix(1,0,0,1,29.33176499999999,38.817511323043)"><svg viewBox="0 0 316.416 41.863197353914" height="41.863197353914" width="316.416"><g><svg viewBox="0 0 316.416 41.863197353914" height="41.863197353914" width="316.416"><g><svg viewBox="0 0 316.416 41.863197353914" height="41.863197353914" width="316.416"><g><svg viewBox="0 0 316.416 41.863197353914" height="41.863197353914" width="316.416"><g id="textblocktransform"><svg viewBox="0 0 316.416 41.863197353914" height="41.863197353914" width="316.416" id="textblock"><g><svg viewBox="0 0 316.416 41.863197353914" height="41.863197353914" width="316.416"><g transform="matrix(1,0,0,1,0,0)"><svg width="316.416" viewBox="0.98 -31.74 309.96999999999997 41.019999999999996" height="41.863197353914" data-palette-color="#003231"><path d="M22.17-29.3L22.17-28.03 26.32-28.03 26.32-6.15 7.76-29.3 0.98-29.3 0.98-28.03 4.88-28.03 4.88-1.27 0.98-1.27 0.98 0 10.99 0Q10.99-1.07 10.21-1.22L10.21-1.22Q9.96-1.27 9.72-1.27L9.72-1.27 6.84-1.27 6.84-23.88 26.03 0.24 28.27-0.24 28.27-28.03 32.18-28.03 32.18-29.3 22.17-29.3ZM44.82-20.02L44.82-20.02Q48.24-20.02 49.36-17.14L49.36-17.14Q49.75-16.21 49.75-15.14L49.75-15.14Q49.75-12.7 47.41-12.16L47.41-12.16Q46.19-11.91 43.94-11.96L43.94-11.96 38.77-12.11Q39.01-17.72 42.43-19.43L42.43-19.43Q43.55-20.02 44.82-20.02ZM53.32-4.69L53.32-4.69 52.1-5.13Q50.39-1.42 46.58-0.93L46.58-0.93Q46.09-0.88 45.65-0.88L45.65-0.88Q40.52-0.88 39.21-6.98L39.21-6.98Q38.82-8.69 38.77-10.74L38.77-10.74 44.63-10.64Q50.58-10.55 52.29-11.77L52.29-11.77Q53.61-12.74 53.61-14.55L53.61-14.55Q53.61-17.87 50.24-19.82L50.24-19.82Q47.85-21.24 44.72-21.24L44.72-21.24Q38.62-21.24 35.98-16.16L35.98-16.16Q34.62-13.53 34.62-10.21L34.62-10.21Q34.62-4.15 38.96-1.22L38.96-1.22Q41.55 0.49 44.87 0.49L44.87 0.49Q50.14 0.49 52.63-3.32L52.63-3.32Q53.02-4 53.32-4.69ZM56.29-20.75L56.29-19.53 59.71-19.53 59.71-5.76Q60.05 0.34 65.33 0.54L65.33 0.54Q69.82 0.54 70.94-4.98L70.94-4.98Q70.94-5.03 70.94-5.08L70.94-5.08 69.62-5.32Q68.4-1.27 66.06-0.93L66.06-0.93Q63.42-1.03 63.37-4.69L63.37-4.69 63.37-19.53 70.94-19.53 70.94-20.75 63.37-20.75 63.37-26.42 59.71-25.39 59.71-20.75 56.29-20.75ZM72.16-20.75L72.16-19.53 75.58-19.53 75.58-5.76Q75.92 0.34 81.19 0.54L81.19 0.54Q85.69 0.54 86.81-4.98L86.81-4.98Q86.81-5.03 86.81-5.08L86.81-5.08 85.49-5.32Q84.27-1.27 81.93-0.93L81.93-0.93Q79.29-1.03 79.24-4.69L79.24-4.69 79.24-19.53 86.81-19.53 86.81-20.75 79.24-20.75 79.24-26.42 75.58-25.39 75.58-20.75 72.16-20.75ZM96.33-0.83L96.33-0.83Q99.7-0.83 100.87-2.88L100.87-2.88Q101.31-3.61 101.31-4.49L101.31-4.49Q101.31-6.54 98.33-8.01L98.33-8.01Q97.7-8.35 96.23-8.98L96.23-8.98Q92.23-10.64 90.91-12.11L90.91-12.11Q89.49-13.72 89.49-15.87L89.49-15.87Q89.49-19.24 93.2-20.61L93.2-20.61Q94.91-21.24 96.91-21.24L96.91-21.24Q100.14-21.24 102.48-19.87L102.48-19.87Q102.48-21.29 103.16-21.48L103.16-21.48Q103.46-21.53 103.8-21.53L103.8-21.53 103.8-15.43 102.53-15.43Q102.43-19.92 97.55-19.97L97.55-19.97Q93.89-19.97 93.01-17.82L93.01-17.82Q92.76-17.24 92.76-16.6L92.76-16.6Q92.76-14.5 95.79-13.04L95.79-13.04Q96.47-12.7 97.94-12.11L97.94-12.11Q101.89-10.5 103.21-9.03L103.21-9.03Q104.63-7.47 104.63-5.32L104.63-5.32Q104.63-1.37 100.43-0.05L100.43-0.05Q98.82 0.49 96.91 0.49L96.91 0.49Q93.4 0.44 90.81-1.27L90.81-1.27Q90.81 0 90.18 0.2L90.18 0.2Q89.88 0.24 89.49 0.24L89.49 0.24 89.49-7.18 90.86-7.18Q90.96-0.88 96.33-0.83ZM118.05-1.22L118.05-1.22 115.61-1.22 115.61-20.75 108.04-20.75 108.04-19.53 111.95-19.53 111.95-4.15Q111.95-1.9 110.44-1.42L110.44-1.42Q109.7-1.22 108.04-1.22L108.04-1.22 108.04 0 119.27 0Q119.27-1.07 118.54-1.17L118.54-1.17Q118.3-1.22 118.05-1.22ZM116.2-27.88L116.2-27.88Q116.2-29.59 114.68-30.32L114.68-30.32Q114.1-30.57 113.56-30.57L113.56-30.57Q111.85-30.57 111.12-29L111.12-29Q110.88-28.47 110.88-27.88L110.88-27.88Q110.88-26.07 112.49-25.39L112.49-25.39Q113.02-25.2 113.56-25.2L113.56-25.2Q115.27-25.2 115.95-26.76L115.95-26.76Q116.2-27.29 116.2-27.88ZM138.95-5.18L139.34 0 146.32 0Q146.32-1.07 145.59-1.17L145.59-1.17Q145.4-1.22 145.1-1.22L145.1-1.22 142.66-1.22 142.56-31.74 134.26-31.74 134.26-30.52 138.9-30.52 138.9-18.6Q136.51-21.24 132.46-21.24L132.46-21.24Q127.08-21.24 124.35-16.46L124.35-16.46Q122.69-13.53 122.69-9.86L122.69-9.86Q122.69-3.81 126.5-1.03L126.5-1.03Q128.65 0.49 131.24 0.49L131.24 0.49Q136.56 0.39 138.95-5.18L138.95-5.18ZM126.84-10.45L126.84-10.45Q126.84-17.33 130.55-19.38L130.55-19.38Q131.72-20.02 133.14-20.02L133.14-20.02Q136.7-20.02 138.22-16.21L138.22-16.21Q139.05-14.16 139.05-11.38L139.05-11.38Q139.05-5.52 136.12-2.88L136.12-2.88Q134.56-1.46 132.55-1.46L132.55-1.46Q128.55-1.46 127.33-6.35L127.33-6.35Q126.84-8.15 126.84-10.45ZM159.65-20.02L159.65-20.02Q163.07-20.02 164.19-17.14L164.19-17.14Q164.58-16.21 164.58-15.14L164.58-15.14Q164.58-12.7 162.24-12.16L162.24-12.16Q161.02-11.91 158.77-11.96L158.77-11.96 153.6-12.11Q153.84-17.72 157.26-19.43L157.26-19.43Q158.38-20.02 159.65-20.02ZM168.15-4.69L168.15-4.69 166.93-5.13Q165.22-1.42 161.41-0.93L161.41-0.93Q160.92-0.88 160.48-0.88L160.48-0.88Q155.35-0.88 154.04-6.98L154.04-6.98Q153.64-8.69 153.6-10.74L153.6-10.74 159.46-10.64Q165.41-10.55 167.12-11.77L167.12-11.77Q168.44-12.74 168.44-14.55L168.44-14.55Q168.44-17.87 165.07-19.82L165.07-19.82Q162.68-21.24 159.55-21.24L159.55-21.24Q153.45-21.24 150.81-16.16L150.81-16.16Q149.45-13.53 149.45-10.21L149.45-10.21Q149.45-4.15 153.79-1.22L153.79-1.22Q156.38 0.49 159.7 0.49L159.7 0.49Q164.97 0.49 167.46-3.32L167.46-3.32Q167.85-4 168.15-4.69ZM182.16 8.06L178.74 8.06 178.74-2.05Q181.43 0.29 184.94 0.49L184.94 0.49Q189.29 0.49 192.22-2.78L192.22-2.78Q195.05-5.96 195.05-10.84L195.05-10.84Q195.05-16.41 191.97-19.29L191.97-19.29Q189.82-21.24 186.75-21.24L186.75-21.24Q182.01-21.24 179.67-17.48L179.67-17.48Q179.08-16.5 178.69-15.43L178.69-15.43 178.45-20.75 171.42-20.75 171.42-19.53 175.08-19.53 175.08 5.13Q175.08 7.37 173.81 7.81L173.81 7.81Q173.08 8.06 171.42 8.06L171.42 8.06 171.42 9.28 183.38 9.28Q183.38 8.2 182.65 8.11L182.65 8.11Q182.45 8.06 182.16 8.06L182.16 8.06ZM185.19-19.29L185.19-19.29Q189.43-19.29 190.56-13.96L190.56-13.96Q190.9-12.35 190.9-10.35L190.9-10.35Q190.9-3.17 187.04-1.27L187.04-1.27Q185.92-0.73 184.6-0.73L184.6-0.73Q180.84-0.73 179.42-4.69L179.42-4.69Q178.69-6.69 178.69-9.42L178.69-9.42Q178.69-15.77 181.96-18.21L181.96-18.21Q183.43-19.29 185.19-19.29ZM216.09 0.49L216.09 0.49Q219.85 0.49 220.24-4.05L220.24-4.05Q220.29-4.35 220.29-4.59L220.29-4.59 219.02-4.64Q218.68-1.07 217.12-1.03L217.12-1.03Q215.85-1.12 215.8-3.56L215.8-3.56 215.8-13.87Q215.8-20.85 208.82-21.24L208.82-21.24Q208.38-21.24 207.94-21.24L207.94-21.24Q202.47-21.24 200.61-18.7L200.61-18.7Q200.03-17.87 200.03-17.04L200.03-17.04Q200.03-15.53 201.44-15.28L201.44-15.28Q201.69-15.23 201.93-15.23L201.93-15.23Q203.05-15.23 203.59-16.65L203.59-16.65Q204.27-18.46 204.52-18.8L204.52-18.8Q205.45-20.02 207.4-20.02L207.4-20.02Q211.99-19.73 212.14-14.99L212.14-14.99 212.14-11.91Q200.66-11.91 199-7.13L199-7.13Q198.71-6.2 198.71-5.13L198.71-5.13Q198.71-1.42 201.98-0.05L201.98-0.05Q203.3 0.49 204.76 0.49L204.76 0.49Q208.33 0.49 210.77-1.95L210.77-1.95Q211.65-2.88 212.09-3.91L212.09-3.91Q212.67 0.44 216.09 0.49ZM206.37-1.46L206.37-1.46Q203.4-1.46 202.71-4.44L202.71-4.44Q202.57-5.13 202.57-5.96L202.57-5.96Q202.57-9.23 206.33-10.11L206.33-10.11Q208.33-10.55 212.14-10.6L212.14-10.6 212.14-6.69Q211.4-3.32 208.57-1.95L208.57-1.95Q207.45-1.46 206.37-1.46ZM231.57-1.22L231.57-1.22 229.37-1.22 229.37-8.45 232.06-10.94 238.94 0 245.43 0Q245.43-1.07 244.7-1.17L244.7-1.17Q244.51-1.22 244.21-1.22L244.21-1.22 242.46-1.22 234.59-13.33 239.18-17.63Q240.89-19.24 241.77-19.43L241.77-19.43Q242.16-19.53 242.65-19.53L242.65-19.53Q243.73-19.53 243.82-20.26L243.82-20.26Q243.87-20.51 243.87-20.75L243.87-20.75 235.57-20.75 235.57-19.53 239.23-19.53 229.37-10.4 229.37-31.74 222.05-31.74 222.05-30.52 225.71-30.52 225.71-4.15Q225.71-1.9 224.44-1.46L224.44-1.46Q223.71-1.22 222.05-1.22L222.05-1.22 222.05 0 232.79 0Q232.79-1.07 232.06-1.17L232.06-1.17Q231.86-1.22 231.57-1.22ZM255.98-1.22L255.98-1.22 253.78-1.22 253.78-8.45 256.47-10.94 263.35 0 269.85 0Q269.85-1.07 269.11-1.17L269.11-1.17Q268.92-1.22 268.62-1.22L268.62-1.22 266.87-1.22 259.01-13.33 263.6-17.63Q265.3-19.24 266.18-19.43L266.18-19.43Q266.57-19.53 267.06-19.53L267.06-19.53Q268.14-19.53 268.23-20.26L268.23-20.26Q268.28-20.51 268.28-20.75L268.28-20.75 259.98-20.75 259.98-19.53 263.64-19.53 253.78-10.4 253.78-31.74 246.46-31.74 246.46-30.52 250.12-30.52 250.12-4.15Q250.12-1.9 248.85-1.46L248.85-1.46Q248.12-1.22 246.46-1.22L246.46-1.22 246.46 0 257.2 0Q257.2-1.07 256.47-1.17L256.47-1.17Q256.27-1.22 255.98-1.22ZM281.51-20.02L281.51-20.02Q284.93-20.02 286.05-17.14L286.05-17.14Q286.44-16.21 286.44-15.14L286.44-15.14Q286.44-12.7 284.1-12.16L284.1-12.16Q282.88-11.91 280.63-11.96L280.63-11.96 275.46-12.11Q275.7-17.72 279.12-19.43L279.12-19.43Q280.24-20.02 281.51-20.02ZM290.01-4.69L290.01-4.69 288.79-5.13Q287.08-1.42 283.27-0.93L283.27-0.93Q282.78-0.88 282.34-0.88L282.34-0.88Q277.22-0.88 275.9-6.98L275.9-6.98Q275.51-8.69 275.46-10.74L275.46-10.74 281.32-10.64Q287.27-10.55 288.98-11.77L288.98-11.77Q290.3-12.74 290.3-14.55L290.3-14.55Q290.3-17.87 286.93-19.82L286.93-19.82Q284.54-21.24 281.42-21.24L281.42-21.24Q275.31-21.24 272.68-16.16L272.68-16.16Q271.31-13.53 271.31-10.21L271.31-10.21Q271.31-4.15 275.65-1.22L275.65-1.22Q278.24 0.49 281.56 0.49L281.56 0.49Q286.84 0.49 289.33-3.32L289.33-3.32Q289.72-4 290.01-4.69ZM304.41-1.22L304.41-1.22 300.9-1.22 300.9-10.94Q300.9-15.38 303.63-18.07L303.63-18.07Q304.7-19.09 305.44-19.14L305.44-19.14Q306.27-19.14 306.95-17.92L306.95-17.92Q307.73-16.55 308.41-16.36L308.41-16.36Q308.71-16.26 309-16.26L309-16.26Q310.47-16.26 310.86-17.68L310.86-17.68Q310.95-17.97 310.95-18.26L310.95-18.26Q310.95-20.46 308.71-20.95L308.71-20.95Q308.22-21.04 307.78-21.04L307.78-21.04Q304.85-21.04 302.56-18.55L302.56-18.55Q301.48-17.38 300.85-15.92L300.85-15.92 300.65-20.75 293.57-20.75 293.57-19.53 297.23-19.53 297.23-4.15Q297.23-1.9 295.96-1.46L295.96-1.46Q295.23-1.22 293.57-1.22L293.57-1.22 293.57 0 305.63 0Q305.63-1.07 304.9-1.17L304.9-1.17Q304.7-1.22 304.41-1.22Z" opacity="1" transform="matrix(1,0,0,1,0,0)" fill="#00D084" class="wordmark-text-0" data-fill-palette-color="primary" id="text-0"></path></svg></g></svg></g></svg></g></svg></g><g></g></svg></g></svg></g></svg></g></svg></g><defs></defs></svg><rect width="375.07953" height="119.49822" fill="none" stroke="none" visibility="hidden"></rect></g></svg></g></svg>